<?xml version="1.0" encoding="UTF-8"?>
<svg version="1.1" xmlns="http://www.w3.org/2000/svg" width="500" height="500">
<path d="M0 0 C0.98745209 0.00054382 1.97490417 0.00108765 2.99227905 0.00164795 C19.02833221 0.04213117 34.40384693 0.97289276 50.125 4.375 C51.14207031 4.58930664 52.15914063 4.80361328 53.20703125 5.02441406 C92.71953921 13.56060682 129.10723964 31.54229808 160.125 57.375 C160.65061523 57.81038086 161.17623047 58.24576172 161.71777344 58.69433594 C174.05596462 68.94918166 185.23745176 79.70000465 195.125 92.375 C195.91390625 93.35855469 196.7028125 94.34210938 197.515625 95.35546875 C229.04390372 134.98120837 250.06284889 187.04057761 250.328125 238.10546875 C250.33513931 239.010159 250.34215363 239.91484924 250.34938049 240.84695435 C250.3668005 243.75218735 250.37323321 246.65721668 250.375 249.5625 C250.37567474 250.55398041 250.37634949 251.54546082 250.37704468 252.56698608 C250.36169249 266.7364795 249.96256564 280.45249536 247.125 294.375 C246.7811632 296.23045267 246.4374171 298.08592214 246.09375 299.94140625 C239.79836093 332.39909542 226.69005613 365.53986837 207.125 392.375 C206.69106934 392.97586426 206.25713867 393.57672852 205.81005859 394.19580078 C192.01711181 413.23148686 176.76823462 430.92185225 158.125 445.375 C156.68833984 446.53708984 156.68833984 446.53708984 155.22265625 447.72265625 C111.20776238 482.7458568 56.48149676 500.92510006 0.5 500.6875 C-0.41909149 500.68534485 -1.33818298 500.6831897 -2.28512573 500.68096924 C-40.46132518 500.53773139 -76.50718959 492.06711598 -110.875 475.375 C-111.59606934 475.02743652 -112.31713867 474.67987305 -113.06005859 474.32177734 C-136.82733618 462.72167221 -157.80869473 446.57094612 -176.875 428.375 C-177.74769531 427.54355469 -178.62039062 426.71210938 -179.51953125 425.85546875 C-185.46147529 420.05956327 -190.80582775 413.94133342 -195.875 407.375 C-196.39078613 406.71387207 -196.90657227 406.05274414 -197.43798828 405.37158203 C-225.45150601 369.25250705 -243.06161776 326.70201227 -248.875 281.375 C-248.96232895 280.70312653 -249.0496579 280.03125305 -249.13963318 279.33901978 C-249.81555995 273.76046354 -250.04894817 268.26098719 -250.078125 262.64453125 C-250.08864647 261.28749588 -250.08864647 261.28749588 -250.09938049 259.90304565 C-250.1168005 256.99781265 -250.12323321 254.09278332 -250.125 251.1875 C-250.12567474 250.19601959 -250.12634949 249.20453918 -250.12704468 248.18301392 C-250.1116899 234.01112705 -249.70342533 220.3008518 -246.875 206.375 C-246.54256516 204.55476116 -246.21055109 202.73444544 -245.87890625 200.9140625 C-238.59014691 162.81819062 -222.01012351 126.73142591 -197.875 96.375 C-197.15957031 95.4675 -196.44414062 94.56 -195.70703125 93.625 C-153.9403945 41.58303137 -93.16233912 8.0820332 -26.75219727 0.80273438 C-17.85921146 -0.05823856 -8.92656149 -0.01857921 0 0 Z M24.125 127.375 C15.57909985 139.2632077 11.08118125 152.87291773 10.125 167.375 C10.07085937 168.08269531 10.01671875 168.79039062 9.9609375 169.51953125 C9.44515743 182.15614305 13.37676434 195.03003222 21.1640625 204.98046875 C27.49026735 211.8319945 34.15630201 215.36903189 43.5 216 C53.54286227 215.56089037 61.83347142 209.6070723 68.875 202.84765625 C80.27397097 190.32066211 85.54169311 173.77476849 85.4375 157.0625 C85.43331055 156.14186768 85.42912109 155.22123535 85.42480469 154.27270508 C85.30949988 147.30719045 84.55975745 140.94884512 82.125 134.375 C81.86976563 133.66730469 81.61453125 132.95960938 81.3515625 132.23046875 C78.13422305 124.74794077 72.03618854 117.50936688 64.75 113.8125 C48.66575444 107.43426469 34.88114889 114.91597383 24.125 127.375 Z M-71.875 122.375 C-81.38220253 135.73889789 -83.43382258 150.1621774 -81.37890625 166.26171875 C-78.26753655 183.36546293 -70.90877519 198.80944516 -56.8359375 209.4921875 C-50.05624029 213.80328784 -42.25446603 217.72228253 -34.0546875 216.0703125 C-24.19868073 212.92628167 -17.56792183 207.72720142 -12.33984375 198.734375 C-4.49284056 182.72008277 -5.91091201 165.48698335 -10.94140625 148.84765625 C-15.92057788 135.02757922 -24.27059383 121.94092912 -37.875 115.375 C-50.39197162 110.48648195 -62.68687118 111.83567576 -71.875 122.375 Z M86.84375 210.26171875 C75.97871014 223.62077913 69.65109306 241.01565165 71.125 258.375 C72.90627215 269.66645399 77.32685795 277.75038378 86.1875 285 C91.06548223 288.46179384 96.28431427 289.1277148 102.125 288.375 C115.73981892 285.46376471 125.95502675 278.66014291 134.125 267.375 C137.2449337 262.25678417 139.78007802 256.88454203 142.125 251.375 C142.70121094 250.02148438 142.70121094 250.02148438 143.2890625 248.640625 C146.92916786 237.95844665 147.12248617 223.09434531 143.0625 212.5625 C138.5740777 203.69944638 132.6458455 197.54861517 123.125 194.375 C108.92489761 192.75894357 96.34825324 200.15197592 86.84375 210.26171875 Z M-131.82421875 207.21484375 C-139.91106679 216.59016234 -140.87603831 228.40626325 -140.08203125 240.34472656 C-138.37277877 257.10668835 -130.07022678 271.17358314 -117.875 282.375 C-114.68746852 284.7753078 -111.46873293 286.65228993 -107.875 288.375 C-107.06289062 288.78492188 -106.25078125 289.19484375 -105.4140625 289.6171875 C-97.96562713 293.02420052 -90.99377673 293.61063302 -83.125 291.25 C-75.07644108 286.60660063 -69.99472647 280.99914523 -67.125 272.03125 C-63.2045595 255.26047676 -67.037006 238.92163052 -75.61816406 224.32080078 C-82.60090531 213.510302 -92.70706901 204.75860034 -104.875 200.375 C-114.46244817 198.45751037 -124.53569876 200.33529883 -131.82421875 207.21484375 Z M-50.56640625 279.62109375 C-68.44087045 300.94342414 -87.89567843 332.48971383 -86.390625 361.359375 C-84.97467126 369.64055898 -80.5020087 376.29698724 -73.875 381.375 C-65.64879211 387.009618 -55.74621219 386.45234512 -46.27734375 384.71484375 C-38.98749659 382.8824665 -31.95339847 380.38253117 -24.875 377.875 C-21.54410773 376.70123021 -18.21070006 375.5350312 -14.875 374.375 C-14.21532227 374.14184082 -13.55564453 373.90868164 -12.87597656 373.66845703 C10.33031904 365.66777511 31.52696217 371.78910431 53.29614258 380.84521484 C64.73174933 385.58555832 74.59163589 388.42872326 86.69921875 384.41796875 C93.11871894 381.65789379 97.77606317 377.53704376 101.125 371.375 C105.59246183 357.88205786 100.41472421 343.62358417 94.5 331.5625 C84.09559416 311.16722186 70.53707643 292.35517969 54.125 276.375 C53.45017578 275.61509766 53.45017578 275.61509766 52.76171875 274.83984375 C41.52841217 262.60306562 25.92851349 255.56712162 9.546875 254.15234375 C-12.90272752 253.37937839 -35.20645399 263.41563953 -50.56640625 279.62109375 Z " fill="#FE7E69" transform="translate(249.875,-0.375)"/>
<path d="M0 0 C2.0625 0.4375 2.0625 0.4375 4 1 C3.67386719 1.4846875 3.34773437 1.969375 3.01171875 2.46875 C-7.15596496 18.06519698 -6.06004923 35.26810759 -3 53 C-8.25934379 47.74065621 -7.2155064 37.53393574 -7.25 30.5 C-7.2293682 23.49894348 -6.71603281 16.81816607 -5 10 C-4.34 10 -3.68 10 -3 10 C-2.86722656 9.36191406 -2.73445312 8.72382813 -2.59765625 8.06640625 C-2.42105469 7.24011719 -2.24445313 6.41382813 -2.0625 5.5625 C-1.88847656 4.73878906 -1.71445313 3.91507812 -1.53515625 3.06640625 C-1 1 -1 1 0 0 Z " fill="#E78272" transform="translate(174,123)"/>
<path d="M0 0 C0.66 0 1.32 0 2 0 C3.31626692 3.61973402 4 6.09567131 4 10 C4.66 10.33 5.32 10.66 6 11 C7.0703125 13.43359375 7.0703125 13.43359375 8.125 16.4375 C8.47820313 17.42621094 8.83140625 18.41492188 9.1953125 19.43359375 C10 22 10 22 10 24 C12.31 24 14.62 24 17 24 C16.67 24.99 16.34 25.98 16 27 C15.34 27 14.68 27 14 27 C14 28.98 14 30.96 14 33 C10.73168067 29.20057878 8.97699131 24.79856647 7 20.25 C6.65710938 19.4765625 6.31421875 18.703125 5.9609375 17.90625 C0 4.34625477 0 4.34625477 0 0 Z M6 6 C6.66 6.33 7.32 6.66 8 7 C7.67 7.99 7.34 8.98 7 10 C6.34 9.34 5.68 8.68 5 8 C5.33 7.34 5.66 6.68 6 6 Z " fill="#EE8273" transform="translate(13,330)"/>
<path d="M0 0 C2.96031581 0.51039928 5.34511366 1.63637913 8 3 C4.08527941 4.6504898 0.16790309 6.29458068 -3.75 7.9375 C-5.41675781 8.64036133 -5.41675781 8.64036133 -7.1171875 9.35742188 C-8.18710937 9.80537109 -9.25703125 10.25332031 -10.359375 10.71484375 C-11.34389648 11.12855225 -12.32841797 11.54226074 -13.34277344 11.96850586 C-15.56409837 12.83078975 -17.67632244 13.49621513 -20 14 C-20 13.34 -20 12.68 -20 12 C-18.87980469 11.62488281 -17.75960938 11.24976563 -16.60546875 10.86328125 C-15.13249133 10.34727005 -13.65985236 9.83029202 -12.1875 9.3125 C-11.44951172 9.06822266 -10.71152344 8.82394531 -9.95117188 8.57226562 C-6.2856866 7.26197903 -4.41515156 6.5632417 -2.05078125 3.35546875 C-1.70402344 2.57816406 -1.35726563 1.80085938 -1 1 C-0.67 0.67 -0.34 0.34 0 0 Z " fill="#E98670" transform="translate(349,474)"/>
<path d="M0 0 C0.66 0.33 1.32 0.66 2 1 C-0.18604285 2.41895708 -2.37377014 3.83519792 -4.5625 5.25 C-5.47612305 5.84361328 -5.47612305 5.84361328 -6.40820312 6.44921875 C-18.1057249 14 -18.1057249 14 -21 14 C-21.33 12.35 -21.66 10.7 -22 9 C-21.67 9.66 -21.34 10.32 -21 11 C-19.68 11 -18.36 11 -17 11 C-17 10.34 -17 9.68 -17 9 C-15.02 8.67 -13.04 8.34 -11 8 C-11 7.01 -11 6.02 -11 5 C-10.34 5 -9.68 5 -9 5 C-8.67 4.01 -8.34 3.02 -8 2 C-6.8553125 2.061875 -6.8553125 2.061875 -5.6875 2.125 C-2.77281584 2.22080824 -2.77281584 2.22080824 0 0 Z " fill="#EB8473" transform="translate(388,457)"/>
<path d="M0 0 C6.00576248 1.6957447 11.31954439 4.60582189 16.8125 7.5 C17.77865234 7.99886719 18.74480469 8.49773438 19.74023438 9.01171875 C20.65740234 9.49253906 21.57457031 9.97335938 22.51953125 10.46875 C23.35589111 10.90638672 24.19225098 11.34402344 25.05395508 11.79492188 C27 13 27 13 28 15 C25.69 14.67 23.38 14.34 21 14 C20.67 13.01 20.34 12.02 20 11 C19.01 11 18.02 11 17 11 C17 10.34 17 9.68 17 9 C15.68 9 14.36 9 13 9 C13 8.34 13 7.68 13 7 C11.02 7.33 9.04 7.66 7 8 C6.7525 7.360625 6.505 6.72125 6.25 6.0625 C5.20311706 3.80104993 5.20311706 3.80104993 2.9375 3.4375 C2.298125 3.293125 1.65875 3.14875 1 3 C0.67 2.01 0.34 1.02 0 0 Z " fill="#EC8173" transform="translate(353,22)"/>
<path d="M0 0 C0 0.66 0 1.32 0 2 C-1.0725 2.12375 -2.145 2.2475 -3.25 2.375 C-6.47981119 2.91330186 -8.20846333 3.51118044 -11 5 C-12.299375 5.2475 -12.299375 5.2475 -13.625 5.5 C-16.17526091 5.81108239 -16.17526091 5.81108239 -18 8 C-19.65 7.01 -21.3 6.02 -23 5 C-22.67 4.01 -22.34 3.02 -22 2 C-21.04738281 1.93941406 -20.09476563 1.87882812 -19.11328125 1.81640625 C-17.23189453 1.69072266 -17.23189453 1.69072266 -15.3125 1.5625 C-14.07113281 1.48128906 -12.82976562 1.40007812 -11.55078125 1.31640625 C-7.63807824 0.96774955 -3.92197438 0 0 0 Z " fill="#EF8173" transform="translate(208,383)"/>
<path d="M0 0 C0.66 0 1.32 0 2 0 C2 0.66 2 1.32 2 2 C2.66 2 3.32 2 4 2 C2.14945936 5.85691628 0.00656926 9.54423295 -2.125 13.25 C-2.49753906 13.8996875 -2.87007812 14.549375 -3.25390625 15.21875 C-4.16829121 16.81306224 -5.08401256 18.4066079 -6 20 C-7.39195915 15.82412255 -5.82323219 13.86525224 -4 10 C-4.66 9.67 -5.32 9.34 -6 9 C-5.34 8.34 -4.68 7.68 -4 7 C-3.01 7 -2.02 7 -1 7 C-0.67 4.69 -0.34 2.38 0 0 Z " fill="#F37F70" transform="translate(185,291)"/>
<path d="M0 0 C3.05942894 4.58914342 3.64504166 9.72868376 4.76928711 15.0793457 C5.18718939 17.06102709 5.61924699 19.03925468 6.05273438 21.01757812 C6.31763672 22.26087891 6.58253906 23.50417969 6.85546875 24.78515625 C7.09934326 25.92863525 7.34321777 27.07211426 7.59448242 28.25024414 C8 31 8 31 7 33 C4.91613111 27.72086547 4.42089996 22.60461531 4 17 C3.34 17 2.68 17 2 17 C0.9375 14.625 0.9375 14.625 0 12 C0.33 11.34 0.66 10.68 1 10 C0.72057545 8.32345271 0.39171753 6.65391846 0 5 C-0.99 5.495 -0.99 5.495 -2 6 C-1.34 4.02 -0.68 2.04 0 0 Z " fill="#EB8073" transform="translate(490,180)"/>
<path d="M0 0 C0.99 0.66 1.98 1.32 3 2 C-6.22551253 11.59453303 -6.22551253 11.59453303 -12 15 C-12.33 13.68 -12.66 12.36 -13 11 C-12.195625 10.71125 -11.39125 10.4225 -10.5625 10.125 C-7.8673532 9.26737432 -7.8673532 9.26737432 -7 7 C-6.01 7 -5.02 7 -4 7 C-3.67 5.68 -3.34 4.36 -3 3 C-2.01 3 -1.02 3 0 3 C0 2.01 0 1.02 0 0 Z " fill="#F08374" transform="translate(425,425)"/>
<path d="M0 0 C0.66 0.33 1.32 0.66 2 1 C1.67 1.66 1.34 2.32 1 3 C0.01 3 -0.98 3 -2 3 C-2.33 3.99 -2.66 4.98 -3 6 C-8.74357537 7.94871307 -13.97314783 8.25111884 -20 8 C-20.33 7.34 -20.66 6.68 -21 6 C-19.98292969 5.97873047 -19.98292969 5.97873047 -18.9453125 5.95703125 C-12.34901025 5.6189936 -7.71538663 4.27355193 -1.99609375 0.9609375 C-1.33738281 0.64382812 -0.67867188 0.32671875 0 0 Z " fill="#E98074" transform="translate(309,209)"/>
<path d="M0 0 C3 2 3 2 3.5625 4.5625 C3.706875 5.366875 3.85125 6.17125 4 7 C4.66 7.33 5.32 7.66 6 8 C6.45375 8.969375 6.9075 9.93875 7.375 10.9375 C9.03813522 14.07187022 9.74023094 14.8759417 13 16 C12.67 17.65 12.34 19.3 12 21 C8.15285915 17.62075466 6.06572266 13.85206381 3.75 9.375 C3.38648438 8.694375 3.02296875 8.01375 2.6484375 7.3125 C0 2.27449483 0 2.27449483 0 0 Z " fill="#E98378" transform="translate(27,363)"/>
<path d="M0 0 C0.66 0.33 1.32 0.66 2 1 C0.2142752 2.87971032 -1.50093759 4.35781256 -3.625 5.875 C-6.30709286 8.27476729 -6.70704343 9.48452117 -7 13 C-8.65 12.67 -10.3 12.34 -12 12 C-10.47940093 8.11985064 -8.13921469 6.26093438 -4.875 3.75 C-3.96492188 3.04359375 -3.05484375 2.3371875 -2.1171875 1.609375 C-1.41851562 1.07828125 -0.71984375 0.5471875 0 0 Z " fill="#ED8371" transform="translate(101,48)"/>
<path d="M0 0 C1.32 0 2.64 0 4 0 C2.55575365 3.23861303 0.74227753 5.61969163 -1.625 8.25 C-2.25664062 8.95640625 -2.88828125 9.6628125 -3.5390625 10.390625 C-4.02117187 10.92171875 -4.50328125 11.4528125 -5 12 C-7 8.25 -7 8.25 -7 6 C-4.525 6.495 -4.525 6.495 -2 7 C-2 6.01 -2 5.02 -2 4 C-1.34 4 -0.68 4 0 4 C0 2.68 0 1.36 0 0 Z " fill="#F08272" transform="translate(443,404)"/>
<path d="M0 0 C2.29648357 2.89585905 4.04347557 5.8172031 5.6875 9.125 C6.12449219 9.99382812 6.56148438 10.86265625 7.01171875 11.7578125 C8 14 8 14 8 16 C6.140625 15.83203125 6.140625 15.83203125 4 15 C2.734375 12.63671875 2.734375 12.63671875 1.75 9.6875 C1.41484375 8.72199219 1.0796875 7.75648438 0.734375 6.76171875 C0 4 0 4 0 0 Z " fill="#E48274" transform="translate(471,133)"/>
<path d="M0 0 C7.35012956 0.57648075 14.01424576 2.71046164 21 5 C18.09583903 5.96805366 16.92345144 6.05846827 14 5.6875 C12.9790625 5.56955078 12.9790625 5.56955078 11.9375 5.44921875 C10 5 10 5 7 3 C4.67891331 2.29187186 2.34622853 1.61975848 0 1 C0 0.67 0 0.34 0 0 Z " fill="#E98073" transform="translate(268,369)"/>
<path d="M0 0 C4.12172083 3.76843047 7.63068221 7.88904305 10 13 C9.67 13.66 9.34 14.32 9 15 C6.09699133 13.8231046 4.36635234 12.79648262 3.03515625 9.90234375 C2.2875959 7.61503223 1.62309445 5.32397389 1 3 C0.67 2.01 0.34 1.02 0 0 Z " fill="#EB7D73" transform="translate(455,107)"/>
<path d="M0 0 C2 2 2 2 2 5 C2.598125 5.226875 3.19625 5.45375 3.8125 5.6875 C6.60188284 7.3611297 7.6168842 9.08817726 9 12 C8.67 12.66 8.34 13.32 8 14 C6.32722165 12.21371169 4.66175557 10.4214925 3 8.625 C2.28457031 7.86316406 2.28457031 7.86316406 1.5546875 7.0859375 C-2 3.2265625 -2 3.2265625 -2 1 C-1.34 0.67 -0.68 0.34 0 0 Z " fill="#EC826F" transform="translate(311,279)"/>
<path d="M0 0 C3.5786304 1.65167557 6.74820188 3.78286492 10 6 C8.25 7.125 8.25 7.125 6 8 C3.33024478 7.05773345 2.01384202 6.01384202 0 4 C0 2.68 0 1.36 0 0 Z " fill="#EF816D" transform="translate(397,48)"/>
<path d="M0 0 C0.33 0 0.66 0 1 0 C1.18175781 0.80824219 1.36351562 1.61648438 1.55078125 2.44921875 C1.80214844 3.51785156 2.05351562 4.58648437 2.3125 5.6875 C2.55613281 6.74324219 2.79976563 7.79898437 3.05078125 8.88671875 C3.99363297 11.97911718 5.29600713 14.27456603 7 17 C7 17.66 7 18.32 7 19 C6.01 19 5.02 19 4 19 C4 18.01 4 17.02 4 16 C3.34 15.67 2.68 15.34 2 15 C-0.25603962 9.98657863 -0.21502018 5.37550458 0 0 Z " fill="#EA8073" transform="translate(321,258)"/>
<path d="M0 0 C3.3 0.33 6.6 0.66 10 1 C6.72134908 2.63932546 4.55518221 3.44691378 1.0625 4.125 C0.22847656 4.29257812 -0.60554688 4.46015625 -1.46484375 4.6328125 C-4.01458019 5.00211177 -6.42759067 5.06442528 -9 5 C-7 3 -7 3 -3.375 2.875 C-1.704375 2.936875 -1.704375 2.936875 0 3 C0 2.01 0 1.02 0 0 Z " fill="#EB8372" transform="translate(299,492)"/>
<path d="M0 0 C-0.7425 0.5775 -1.485 1.155 -2.25 1.75 C-4.66087643 3.72253526 -6.84042701 5.76044282 -9 8 C-10 5 -10 5 -8.75 2.375 C-6.08891657 -1.23647037 -4.02621146 -1.2495139 0 0 Z " fill="#EF7F72" transform="translate(123,204)"/>
<path d="M0 0 C0.639375 0.2475 1.27875 0.495 1.9375 0.75 C2.2675 1.74 2.5975 2.73 2.9375 3.75 C0.9575 4.74 -1.0225 5.73 -3.0625 6.75 C-3.3925 4.77 -3.7225 2.79 -4.0625 0.75 C-2.0625 -0.25 -2.0625 -0.25 0 0 Z " fill="#F2806E" transform="translate(349.0625,195.25)"/>
<path d="M0 0 C0.99 0.66 1.98 1.32 3 2 C1.85865673 4.00256574 0.71181367 6.00199797 -0.4375 8 C-1.39462891 9.670625 -1.39462891 9.670625 -2.37109375 11.375 C-2.90863281 12.24125 -3.44617188 13.1075 -4 14 C-4.33 14 -4.66 14 -5 14 C-5 12.35 -5 10.7 -5 9 C-4.01 8.67 -3.02 8.34 -2 8 C-1.19787372 6.12612784 -1.19787372 6.12612784 -0.8125 3.9375 C-0.65394531 3.20402344 -0.49539063 2.47054688 -0.33203125 1.71484375 C-0.22246094 1.14894531 -0.11289062 0.58304687 0 0 Z " fill="#E98274" transform="translate(465,372)"/>
<path d="M0 0 C0.66 0.66 1.32 1.32 2 2 C2.66 1.67 3.32 1.34 4 1 C4.07654536 5.51617599 4.10228696 9.59085217 3 14 C2.67 14 2.34 14 2 14 C-0.29612756 4.58997722 -0.29612756 4.58997722 0 0 Z " fill="#EF816F" transform="translate(4,295)"/>
<path d="M0 0 C0.33 0 0.66 0 1 0 C1 1.98 1 3.96 1 6 C0.34 6 -0.32 6 -1 6 C-1.0825 6.78375 -1.165 7.5675 -1.25 8.375 C-2 11 -2 11 -4.0625 12.3125 C-5.0215625 12.6528125 -5.0215625 12.6528125 -6 13 C-4.31326082 8.50202887 -2.18326108 4.27113698 0 0 Z " fill="#E98173" transform="translate(390,254)"/>
<path d="M0 0 C0.33 0.66 0.66 1.32 1 2 C0.0625 4.125 0.0625 4.125 -1 6 C-1.66 6 -2.32 6 -3 6 C-3.2475 6.928125 -3.495 7.85625 -3.75 8.8125 C-5.06454245 12.16458325 -5.97963384 13.1877803 -9 15 C-7.61219205 11.10993227 -5.7847773 8.03441292 -3.375 4.6875 C-2.74335937 3.80449219 -2.11171875 2.92148438 -1.4609375 2.01171875 C-0.97882812 1.34785156 -0.49671875 0.68398437 0 0 Z " fill="#E68375" transform="translate(46,104)"/>
<path d="M0 0 C1.134375 0.020625 2.26875 0.04125 3.4375 0.0625 C2.86257813 0.34867187 2.28765625 0.63484375 1.6953125 0.9296875 C0.2483611 1.65566658 -1.19475808 2.3893655 -2.6328125 3.1328125 C-3.31085938 3.48085937 -3.98890625 3.82890625 -4.6875 4.1875 C-5.37070312 4.54070312 -6.05390625 4.89390625 -6.7578125 5.2578125 C-8.5625 6.0625 -8.5625 6.0625 -10.5625 6.0625 C-10.5625 5.0725 -10.5625 4.0825 -10.5625 3.0625 C-9.1084375 2.5984375 -9.1084375 2.5984375 -7.625 2.125 C-1.5798913 0.02771739 -1.5798913 0.02771739 0 0 Z " fill="#E98176" transform="translate(294.5625,110.9375)"/>
<path d="M0 0 C0.85851562 0.36931641 0.85851562 0.36931641 1.734375 0.74609375 C1.0125 1.13796875 0.290625 1.52984375 -0.453125 1.93359375 C-3.492951 3.89259273 -5.78690227 6.12572972 -8.265625 8.74609375 C-8.925625 8.41609375 -9.585625 8.08609375 -10.265625 7.74609375 C-9.03163437 6.37732259 -7.77781877 5.02640209 -6.515625 3.68359375 C-5.81953125 2.92949219 -5.1234375 2.17539063 -4.40625 1.3984375 C-2.265625 -0.25390625 -2.265625 -0.25390625 0 0 Z " fill="#EF8372" transform="translate(81.265625,66.25390625)"/>
<path d="M0 0 C1.65 0 3.3 0 5 0 C5.33 0.99 5.66 1.98 6 3 C7.32 3 8.64 3 10 3 C10 3.66 10 4.32 10 5 C10.99 5 11.98 5 13 5 C13 5.66 13 6.32 13 7 C8.1725201 5.58707905 4.2837641 3.57025846 0 1 C0 0.67 0 0.34 0 0 Z " fill="#E48574" transform="translate(128,468)"/>
<path d="M0 0 C5.08938811 1.59043379 8.87456643 4.7446951 13 8 C12.01 8.495 12.01 8.495 11 9 C7.61278396 7.87092799 6.48555675 6.48555675 4 4 C1.86690808 2.76487921 1.86690808 2.76487921 0 2 C0 1.34 0 0.68 0 0 Z " fill="#E18574" transform="translate(384,39)"/>
<path d="M0 0 C4.62 1.65 9.24 3.3 14 5 C9.98012713 6.00496822 9.02119292 6.00053447 5.3125 4.75 C4.52488281 4.49734375 3.73726563 4.2446875 2.92578125 3.984375 C1 3 1 3 0 0 Z " fill="#E48271" transform="translate(298,378)"/>
<path d="M0 0 C1.90389849 2.85584773 2.69462177 4.9311762 3.625 8.1875 C3.88539063 9.08855469 4.14578125 9.98960937 4.4140625 10.91796875 C4.60742188 11.60503906 4.80078125 12.29210937 5 13 C4.34 12.67 3.68 12.34 3 12 C3 11.01 3 10.02 3 9 C1.68 8.34 0.36 7.68 -1 7 C-0.67 6.34 -0.34 5.68 0 5 C0.0396713 3.33380554 0.04384447 1.66608987 0 0 Z " fill="#E58170" transform="translate(483,159)"/>
<path d="M0 0 C0 0.66 0 1.32 0 2 C-8.261959 5.62870159 -8.261959 5.62870159 -13 4 C-8.93662608 1.29108405 -4.89951609 0 0 0 Z " fill="#EB816B" transform="translate(183,9)"/>
<path d="M0 0 C6.93 0.495 6.93 0.495 14 1 C14 1.33 14 1.66 14 2 C9.05 2.33 4.1 2.66 -1 3 C-0.67 2.01 -0.34 1.02 0 0 Z " fill="#E88574" transform="translate(275,496)"/>
<path d="M0 0 C0.66 1.32 1.32 2.64 2 4 C-0.64 5.65 -3.28 7.3 -6 9 C-4.25618453 5.51236907 -2.47193291 2.96631949 0 0 Z " fill="#EB8075" transform="translate(53,95)"/>
<path d="M0 0 C0.66 1.65 1.32 3.3 2 5 C-1.82097239 4.46930939 -4.06171403 3.50298434 -7 1 C-2.25 0 -2.25 0 0 0 Z " fill="#EB8276" transform="translate(148,474)"/>
<path d="M0 0 C1.30062431 3.81516464 0.89369853 7.27561763 0.5625 11.25 C0.46066406 12.51328125 0.35882813 13.7765625 0.25390625 15.078125 C0.17011719 16.04234375 0.08632812 17.0065625 0 18 C-0.33 18 -0.66 18 -1 18 C-1.22119939 15.37549914 -1.42746669 12.75129514 -1.625 10.125 C-1.68945312 9.37863281 -1.75390625 8.63226563 -1.8203125 7.86328125 C-1.96087365 5.9129953 -1.98759849 3.95530533 -2 2 C-1.34 1.34 -0.68 0.68 0 0 Z " fill="#E5816F" transform="translate(164,346)"/>
<path d="M0 0 C1.43655854 -0.08131463 2.8744483 -0.13933559 4.3125 -0.1875 C5.51326172 -0.23970703 5.51326172 -0.23970703 6.73828125 -0.29296875 C9 0 9 0 10.79296875 1.38671875 C12 3 12 3 12 5 C10.56068883 4.54738642 9.12361001 4.08767021 7.6875 3.625 C6.88699219 3.36976563 6.08648437 3.11453125 5.26171875 2.8515625 C3 2 3 2 0 0 Z " fill="#F07F74" transform="translate(273,256)"/>
<path d="M0 0 C0.33 0.66 0.66 1.32 1 2 C-3 8.57142857 -3 8.57142857 -7 10 C-5.33248852 6.05860922 -2.77289351 3.2107188 0 0 Z " fill="#E68074" transform="translate(61,85)"/>
<path d="M0 0 C1.65 0.33 3.3 0.66 5 1 C4.67 1.66 4.34 2.32 4 3 C4.39938767 5.09821215 4.39938767 5.09821215 5 7 C0.125 5.25 0.125 5.25 -1 3 C-0.34 2.67 0.32 2.34 1 2 C0.67 1.34 0.34 0.68 0 0 Z " fill="#EF7F6E" transform="translate(105,450)"/>
<path d="M0 0 C0 3 0 3 -1.53125 4.60546875 C-2.1809375 5.12753906 -2.830625 5.64960938 -3.5 6.1875 C-4.1496875 6.71730469 -4.799375 7.24710937 -5.46875 7.79296875 C-5.9740625 8.19128906 -6.479375 8.58960938 -7 9 C-7.33 7.68 -7.66 6.36 -8 5 C-7.05125 4.54625 -6.1025 4.0925 -5.125 3.625 C-1.99686321 2.19761746 -1.99686321 2.19761746 0 0 Z " fill="#EE8377" transform="translate(436,416)"/>
<path d="M0 0 C0.33 0.66 0.66 1.32 1 2 C0.22265625 3.9453125 0.22265625 3.9453125 -0.9375 6.125 C-1.31777344 6.84945313 -1.69804687 7.57390625 -2.08984375 8.3203125 C-2.39019531 8.87460937 -2.69054687 9.42890625 -3 10 C-3.33 10 -3.66 10 -4 10 C-4.25 7.25 -4.25 7.25 -4 4 C-2 1.625 -2 1.625 0 0 Z " fill="#E88371" transform="translate(472,363)"/>
<path d="M0 0 C2.0625 2.3125 2.0625 2.3125 4 5 C3.67 5.99 3.34 6.98 3 8 C1.68 7.34 0.36 6.68 -1 6 C-0.67 4.02 -0.34 2.04 0 0 Z " fill="#EF7E6D" transform="translate(465,122)"/>
<path d="M0 0 C0.99 1.32 1.98 2.64 3 4 C1.02 4.99 1.02 4.99 -1 6 C-1.66 4.68 -2.32 3.36 -3 2 C-2.01 1.34 -1.02 0.68 0 0 Z M-4 7 C-2 8 -2 8 -2 8 Z " fill="#F48170" transform="translate(116,38)"/>
<path d="M0 0 C0.66 0 1.32 0 2 0 C1.54917531 1.46067199 1.08906463 2.91848032 0.625 4.375 C0.36976563 5.18710937 0.11453125 5.99921875 -0.1484375 6.8359375 C-1 9 -1 9 -3 11 C-2.69217504 9.35328588 -2.37860766 7.70764424 -2.0625 6.0625 C-1.88847656 5.14597656 -1.71445313 4.22945313 -1.53515625 3.28515625 C-1 1 -1 1 0 0 Z " fill="#EB816E" transform="translate(174,315)"/>
<path d="M0 0 C0.99 0 1.98 0 3 0 C1.70700306 2.88437779 0.34058637 4.87219421 -2 7 C-2.125 4.625 -2.125 4.625 -2 2 C-1.34 1.34 -0.68 0.68 0 0 Z " fill="#EE8170" transform="translate(194,282)"/>
<path d="M0 0 C0.66 0 1.32 0 2 0 C0.6302836 3.99500618 -1.25722422 6.80009492 -4 10 C-4 8.35 -4 6.7 -4 5 C-3.34 5 -2.68 5 -2 5 C-1.34 3.35 -0.68 1.7 0 0 Z " fill="#E67F73" transform="translate(333,212)"/>
<path d="M0 0 C1.12894876 0.93274109 2.25300876 1.87140122 3.375 2.8125 C4.00148438 3.33457031 4.62796875 3.85664062 5.2734375 4.39453125 C7 6 7 6 9 9 C5.18063472 7.44396229 2.73955562 5.04395069 0 2 C0 1.34 0 0.68 0 0 Z " fill="#DD8573" transform="translate(425,71)"/>
<path d="M0 0 C2.01920337 1.30406884 4.01924973 2.63823419 6 4 C6 4.33 6 4.66 6 5 C3.36 5.33 0.72 5.66 -2 6 C-1.67 5.38125 -1.34 4.7625 -1 4.125 C0.14193235 2.08981656 0.14193235 2.08981656 0 0 Z " fill="#EC8175" transform="translate(332,281)"/>
<path d="M0 0 C3.93846154 3.32307692 3.93846154 3.32307692 4.25 6.75 C4.1675 7.4925 4.085 8.235 4 9 C1.18167487 7.59083743 0.97406539 5.92219617 0 3 C0 2.01 0 1.02 0 0 Z " fill="#ED8271" transform="translate(179,233)"/>
<path d="M0 0 C6.42857143 4.14285714 6.42857143 4.14285714 9 7 C6.61435923 6.42415568 4.33317216 5.77772405 2 5 C0.8125 2.4375 0.8125 2.4375 0 0 Z " fill="#E88171" transform="translate(186,203)"/>
<path d="M0 0 C0.66 0 1.32 0 2 0 C2.33 0.99 2.66 1.98 3 3 C2.01 3.33 1.02 3.66 0 4 C-0.33 6.31 -0.66 8.62 -1 11 C-2.60080151 6.99799622 -1.29279692 3.95443764 0 0 Z " fill="#EC8272" transform="translate(9,180)"/>
<path d="M0 0 C0.66 1.32 1.32 2.64 2 4 C1.34 4 0.68 4 0 4 C0 4.66 0 5.32 0 6 C-1.32 6.33 -2.64 6.66 -4 7 C-2.79618552 4.50638429 -1.54571278 2.31856917 0 0 Z " fill="#EE7D72" transform="translate(325,193)"/>
<path d="M0 0 C0.99 0.33 1.98 0.66 3 1 C2.67 2.32 2.34 3.64 2 5 C1.01 5 0.02 5 -1 5 C-0.67 3.35 -0.34 1.7 0 0 Z " fill="#F08270" transform="translate(242,155)"/>
<path d="M0 0 C1.70884005 1.62339805 3.37446717 3.29319053 5 5 C5 5.66 5 6.32 5 7 C3.68 6.67 2.36 6.34 1 6 C0.67 4.02 0.34 2.04 0 0 Z " fill="#F27F76" transform="translate(474,142)"/>
</svg>
